<?xml version="1.0" encoding="utf-8"?>
<!-- Generator: Adobe Illustrator 16.0.0, SVG Export Plug-In . SVG Version: 6.00 Build 0)  -->
<!DOCTYPE svg PUBLIC "-//W3C//DTD SVG 1.1//EN" "http://www.w3.org/Graphics/SVG/1.1/DTD/svg11.dtd">
<svg version="1.1" id="Layer_1" xmlns="http://www.w3.org/2000/svg" xmlns:xlink="http://www.w3.org/1999/xlink" x="0px" y="0px"
	 width="186.417px" height="42.083px" viewBox="0 0 186.417 42.083" enable-background="new 0 0 186.417 42.083"
	 xml:space="preserve">
<g>
	<g>
		<path fill="#FFFFFF" d="M120.922,1.245c-0.67-0.036-1.432,0.581-2.129,1.312c-0.295,0.308-0.54,0.576-0.773,0.795
			c-0.441,0.412-0.843,0.639-1.467,0.592c-0.246-0.02-0.586-0.192-1.038-0.439c-1.216-0.661-3.258-1.853-6.604-2.022
			c-0.224-0.012-0.455-0.019-0.689-0.021c-1.515-0.01-2.649,0.115-3.552,0.329c-0.229,0.055-0.441,0.114-0.643,0.179
			c-1.586,0.513-2.38,1.333-3.524,2.082c-0.058,0.036-0.297,0-0.357-0.054c-0.527-0.468-1.061-0.868-1.607-1.203
			c-0.498-0.305-1.007-0.556-1.527-0.756c-0.465-0.179-0.941-0.317-1.43-0.416c-0.646-0.132-1.314-0.195-2.009-0.195
			c-1.914,0-4.001,0.984-4.148,2.772c-0.158,1.928,1.065,2.774,2.387,2.774c1.189,0,1.844-0.563,2.177-1.099
			c0.037-0.061,0.218-0.074,0.275-0.024C94.8,6.33,95.23,6.733,95.58,7.087c0.862,0.876,1.219,1.448,1.43,2.118
			c0.097,0.305,0.163,0.631,0.233,1.016c0.294,1.605,0.22,4.598,0.22,5.693c0,0.363-0.009,1.801-0.021,3.595
			c0,0.065-0.096,0.276-0.142,0.316l-0.29,0.256c-0.527,0.475-1.004,0.962-1.43,1.459c-1.958,2.281-2.857,4.775-2.742,7.295
			c0.143,3.152,1.114,5.064,2.275,6.623c0.037,0.048,0.032,0.216-0.006,0.251c-0.641,0.599-1.155,0.825-1.633,0.991
			c-0.055,0.018-0.209-0.074-0.236-0.136c-0.359-0.813-1.078-1.384-2.272-1.416c-1.222-0.034-2.534,0.656-2.571,2.883
			c-0.03,1.897,2.029,3.14,4.443,3.14c1.041,0,1.93-0.084,2.742-0.26c0.501-0.108,0.972-0.252,1.43-0.436
			c0.516-0.205,1.018-0.463,1.527-0.771c0.552-0.335,1.114-0.732,1.718-1.195c0.048-0.037,0.236-0.032,0.282,0.008
			c1.104,0.965,2.203,1.725,3.489,2.196c0.209,0.075,0.423,0.146,0.643,0.206c0.888,0.247,1.869,0.363,2.999,0.323
			c0.42-0.015,0.838-0.055,1.242-0.13c1.641-0.302,3.018-1.148,3.018-2.936c0-2.263-1.038-2.996-2.387-3.028
			c-0.227-0.007-0.437,0-0.631,0.019c-0.956,0.091-1.567,0.488-2.099,1.379c-0.032,0.055-0.254,0.173-0.334,0.163
			c-0.603-0.073-1.251-0.532-1.809-1.128c-0.234-0.249-0.451-0.521-0.643-0.8c-0.263-0.383-0.477-0.774-0.616-1.13
			c-0.515-1.314-0.294-3.65-0.294-4.744c0-0.365,0.018-2.309,0.039-4.18c0.001-0.057,0.112-0.104,0.161-0.068
			c0.777,0.572,0.387,2.021,0.387,2.021s-0.29,0.656,0.323,0.656h0.008c0.177,0,0.4-0.292,0.635-0.389
			c0.639-0.264,1.361-0.96,1.441-2.057c0.05-0.67-0.35-1.843-0.056-2.063c0.294-0.219,0.784-0.352,1.688,0.119
			c0.488,0.254,0.918,0.555,1.168,1.029c0.116,0.222,0.194,0.474,0.219,0.777c0.006,0.069-0.115,0.216-0.175,0.221l-0.044,0.002
			c-1.38,0.119-1.972,1.319-1.902,2.324c0.071,1.026,0.83,1.729,1.902,1.92c0.222,0.039,0.458,0.057,0.704,0.051
			c1.175-0.03,2.847-1.132,2.774-2.994c-0.096-2.406-1.563-3.793-1.563-5.329c0-1.643,1.08-1.499,1.213-4.27
			c0.074-1.533-1.029-3.176-2.535-3.176c-0.2,0-0.4,0.021-0.594,0.058c-0.975,0.191-1.791,0.859-1.791,1.987
			c0,1.169,0.748,2.013,1.633,2.047c0.055,0.001,0.146,0.107,0.132,0.161c-0.216,0.857-1.04,1.414-2.354,1.55
			c-0.807,0.085-1.431,0.107-1.861,0.096c-0.187-0.004-0.338-0.016-0.452-0.032c-0.059-0.008-0.084-0.141-0.054-0.2
			c0.172-0.332,0.343-0.676,0.506-1.031c0.536-1.166,0.993-2.439,1.164-3.722c0.302-2.257-0.055-4.375-1.164-6.106
			c-0.082-0.129-0.169-0.255-0.259-0.38c-0.031-0.042-0.031-0.213,0.004-0.256c0.079-0.099,0.164-0.195,0.255-0.29
			c0.866-0.906,2.266-1.619,4.241-1.93c0.122-0.019,0.247-0.039,0.375-0.053c3.156-0.403,4.57,0.605,5.644,1.572
			c0.247,0.223,0.438,0.508,0.586,0.821c0.37,0.788,0.463,1.757,0.456,2.368c-0.002,0.058-0.107,0.219-0.157,0.248
			c-0.105,0.059-0.204,0.122-0.299,0.186c-0.931,0.628-1.349,1.469-1.349,2.834c0,0.876,0.537,1.699,1.349,2.217
			c0.542,0.346,1.208,0.557,1.92,0.557c0.2,0,0.396-0.015,0.585-0.044c1.572-0.245,2.698-1.481,2.829-3.24
			c0.146-1.972-0.449-4.559-0.449-5.946s0.829-3.882,0.976-4.466C121.521,1.926,121.592,1.281,120.922,1.245z M97.316,7.665
			c0.075-0.078,0.65-0.361,1.221,0.047c0.615,0.438,1.223,1.677,1.198,4.831c-0.004,0.458,0.058,1.459,0.03,5.27
			c-0.068,0.457-0.809,0.909-1.229,1.144c-0.145,0.082-0.251,0.137-0.28,0.158c-0.039,0.026-0.113-0.015-0.113-0.061
			c0.038-3.939,0.039-4.91,0.042-5.45C98.209,8.322,97.16,7.83,97.316,7.665z M93.9,28.49c0.151-1.247,0.84-2.428,1.68-3.275
			c0.451-0.459,0.949-0.82,1.43-1.043l0.103-0.046c0.063-0.027,0.189,0.034,0.188,0.089c-0.023,2.221-0.052,4.121-0.08,4.488
			c-0.037,0.48-0.094,1.423-0.21,2.385c-0.107,0.887-0.265,1.791-0.504,2.369c-0.174,0.422-0.409,0.936-0.727,1.301
			c-0.035,0.039-0.137,0.044-0.199,0.021c-0.022-0.008-0.039-0.018-0.048-0.031C94.23,32.594,93.692,30.209,93.9,28.49z
			 M98.085,24.017c0.004-0.165,0.197-0.302,0.452-0.386c0.443-0.146,1.066-0.128,1.152,0.185c-0.029,2.791-0.087,5.444-0.089,5.933
			c-0.011,3.144-0.494,4.61-1.063,5.246c-0.542,0.604-1.161,0.459-1.527,0.283c-0.131-0.063-0.229-0.129-0.28-0.166
			c-0.049-0.047,0.084-0.13,0.28-0.461c0.402-0.672,1.073-2.369,1.041-6.886C98.046,27.253,98.048,26.797,98.085,24.017z
			 M104.026,38.677c0.203,0.079,0.416,0.152,0.643,0.22c0.194,0.058,0.398,0.109,0.613,0.158c1.627,0.363,2.593,0.278,3.36-0.229
			c0.082-0.052,0.074-0.165-0.004-0.172c-0.55-0.061-0.979-0.536-1.043-1.207c-0.091-0.939,0.61-1.43,1.314-1.564
			c0.139-0.026,0.278-0.041,0.411-0.041c0.808,0,1.871,0.438,1.762,2.19c-0.064,1.025-0.913,1.887-2.173,2.302
			c-0.622,0.205-1.345,0.301-2.122,0.253c-0.68-0.042-1.389-0.209-2.119-0.497c-0.213-0.085-0.427-0.18-0.643-0.285
			c-1.087-0.529-2.217-1.327-3.366-2.396c-0.038-0.035-0.207-0.027-0.253,0.012c-0.624,0.517-1.249,0.976-1.87,1.371
			c-0.511,0.326-1.021,0.607-1.527,0.844c-0.479,0.225-0.957,0.408-1.43,0.547c-0.739,0.219-1.471,0.332-2.191,0.332
			c-2.355,0-3.929-0.985-4.039-2.591c-0.09-1.312,0.772-2.044,1.543-2.008c0.77,0.037,1.468,0.547,1.468,1.351
			c0,0.883-0.33,1.195-0.752,1.262c-0.066,0.012-0.141,0.145-0.098,0.202c0.352,0.481,1.217,0.656,2.722,0.544
			c0.423-0.032,0.878-0.123,1.348-0.264c0.466-0.14,0.947-0.329,1.43-0.559c0.515-0.243,1.029-0.532,1.527-0.856
			c0.679-0.442,1.324-0.949,1.89-1.49c0.04-0.038,0.201-0.027,0.24,0.017C101.72,37.284,102.638,38.133,104.026,38.677z
			 M111.083,24.235c0.816,1.913,0.147,3.212-0.551,3.87c-0.387,0.364-1.036,0.519-1.622,0.403c-0.501-0.097-0.956-0.391-1.168-0.915
			c-0.367-0.912,0.221-1.679,0.845-1.643c0.12,0.008,0.229,0.025,0.323,0.054c0.415,0.122,0.602,0.425,0.673,0.749
			c0.016,0.072,0.173,0.114,0.235,0.059c0.957-0.87,0.563-2.331-0.058-3.051c-0.259-0.302-0.516-0.578-0.851-0.843
			c-0.527-0.416-1.251-0.804-2.489-1.218c-0.129-0.044-0.035-0.071,0.146-0.036c0.879,0.031,1.673,0.247,2.344,0.565
			C110.012,22.751,110.787,23.543,111.083,24.235z M104.604,20.27l0.065-0.006c2.185-0.196,3.198-0.293,4.065-1.027
			c0.062-0.053,0.121-0.105,0.176-0.159c0.775-0.744,0.893-1.525,0.678-2.071c-0.014-0.036-0.143-0.096-0.192-0.093
			c-0.161,0.01-0.326,0.009-0.485-0.012c-0.47-0.062-0.894-0.285-1.021-0.839c-0.213-0.935,0.444-1.637,1.021-1.769
			c0.052-0.012,0.104-0.02,0.154-0.021c0.845-0.037,1.467,0.385,1.798,0.948c0.515,0.877,0.368,2.701-0.66,3.832
			c-0.383,0.421-0.799,0.766-1.292,1.017c-0.979,0.497-2.272,0.632-4.241,0.288l-0.029-0.005
			C104.538,20.334,104.513,20.278,104.604,20.27z M104.026,16.685c-0.729,1.604-1.755,2.487-2.892,3.39
			c1.138,0.2,2.169,0.688,2.892,1.433c0.256,0.264,0.473,0.561,0.643,0.887c0.373,0.72,0.515,1.587,0.333,2.59
			c-0.015,0.077-0.108,0.061-0.142-0.026c-0.059-0.149-0.121-0.296-0.191-0.438c-0.18-0.36-0.396-0.688-0.643-0.979
			c-1.012-1.208-2.507-1.818-3.772-1.713c-0.502,0.041-1.08,0.101-1.717,0.26c-0.479,0.119-0.989,0.296-1.527,0.563
			c-0.46,0.228-0.938,0.52-1.43,0.9c-0.358,0.276-0.725,0.599-1.096,0.975c-0.059,0.06-0.111,0.054-0.076-0.01
			c0.349-0.653,0.747-1.249,1.172-1.789c0.457-0.583,0.943-1.103,1.43-1.561c0.523-0.491,1.044-0.913,1.527-1.268
			c0.323-0.239,0.631-0.447,0.909-0.627c1.082-0.697,3.385-2.194,4.58-3.477c0.14-0.148,0.264-0.296,0.369-0.437
			c0.072-0.097,0.134-0.072,0.104,0.029C104.361,15.869,104.202,16.297,104.026,16.685z M104.669,10.69
			c0.108,0.51,0.157,1.056,0.089,1.577c-0.021,0.166-0.051,0.332-0.089,0.496c-0.121,0.521-0.327,1.027-0.643,1.48
			c-0.173,0.25-0.38,0.485-0.622,0.699c-0.047,0.04-0.141-0.04-0.141-0.09c0-1.475,0.01-3.477,0.271-4.848
			c0.061-0.313,0.15-0.679,0.294-1.061c0.025-0.064,0.145-0.09,0.18-0.028l0.018,0.031C104.258,9.362,104.52,9.994,104.669,10.69z
			 M115.819,5.111c-0.057,0.034-0.15-0.026-0.305-0.15c-0.624-0.496-2.259-1.997-6.604-2.294c-0.223-0.016-0.452-0.029-0.689-0.038
			c-0.834-0.03-2.169,0.305-3.552,0.866c-0.214,0.087-0.428,0.179-0.643,0.275c-1.385,0.626-2.75,1.455-3.64,2.349
			c-0.059,0.06-0.274,0.05-0.326-0.011c-0.541-0.651-1.033-1.17-1.523-1.587C98.041,4.1,97.549,3.78,97.01,3.531
			c-0.373-0.172-0.766-0.312-1.198-0.428c-0.078-0.021-0.155-0.04-0.231-0.056c-1.434-0.307-2.66,0.16-3.106,0.518
			c-0.07,0.057-0.026,0.189,0.033,0.214c0.466,0.188,0.819,0.71,0.734,1.222c-0.11,0.657-0.771,1.095-1.432,1.095
			s-1.616-0.657-1.542-1.752c0.059-0.877,1.26-2.63,4.258-2.299c0.371,0.041,0.722,0.104,1.055,0.184
			c0.52,0.125,0.995,0.293,1.43,0.485c0.576,0.257,1.082,0.558,1.527,0.866c0.641,0.443,1.159,0.899,1.592,1.254
			c0.054,0.045,0.261,0.059,0.31,0.023c1.279-0.926,2.482-1.574,3.588-2.018c0.217-0.087,0.433-0.167,0.643-0.239
			c1.149-0.392,2.182-0.561,3.073-0.592c0.391-0.014,0.781-0.004,1.168,0.024c2.969,0.221,5.696,1.583,6.604,2.479
			C115.764,4.758,115.877,4.97,115.819,5.111z M119.711,6.205c-0.064,2.54,1.138,5.184,0,7.41c-0.449,0.878-1.105,1.296-1.691,1.479
			c-0.299,0.093-0.579,0.126-0.806,0.126c-0.671,0-1.325-0.264-1.699-0.792c-0.2-0.281-0.32-0.637-0.32-1.068
			c0-0.442,0.121-0.799,0.32-1.074c0.36-0.499,0.976-0.726,1.589-0.679c0.315,0.024,0.664,0.16,0.916,0.397
			c0.081,0.077,0.153,0.163,0.211,0.261c0.034,0.058,0.175,0.117,0.229,0.028c0.244-0.402,0.564-1.563,0.407-3.46
			c-0.22-2.665,0.037-4.16,0.624-5.327c0.654-1.301,1.175-1.9,1.322-1.716C121.059,2.098,119.784,3.287,119.711,6.205z
			 M84.054,35.114c-1.282-0.07-2.109,0.618-2.503,1.565c-0.021,0.049-0.163,0.133-0.215,0.119c-1.012-0.267-2.014-2.055-2.904-3.929
			c-0.522-1.102-1.521-4.392-2.485-7.807l-0.449-1.606c-0.008-0.023,0.022-0.107,0.042-0.128c0.147-0.14,0.283-0.284,0.407-0.439
			c1.147-1.428,1.233-3.434,0-4.948c-0.333-0.411-0.763-0.785-1.295-1.102c-0.036-0.021-0.082,0.034-0.069,0.083
			c0.205,0.764,0.196,1.544-0.166,2.208c-0.019,0.035-0.08,0.028-0.09-0.01c-0.129-0.492-0.248-0.951-0.354-1.361
			c-0.303-1.18-0.64-2.504-0.963-3.854c-0.263-1.093-0.517-2.201-0.737-3.264c-0.696-3.342-1.064-6.214-0.337-6.623
			c0.159-0.09,0.266-0.071,0.337,0.016c0.294,0.354,0.013,1.851,0.6,1.645l0.138-0.051c0.888-0.34,1.726-0.964,1.569-2.266
			c-0.088-0.72-0.646-1.378-1.569-1.72c-0.225-0.084-0.471-0.149-0.737-0.192c-0.21-0.034-0.433-0.054-0.668-0.058
			c-1.326-0.025-2.223,0.458-3.033,1.123c-0.158,0.13-0.315,0.267-0.47,0.408L67.805,3.2c-1.157-1.041-2.102-1.775-3.91-1.807
			c-0.322-0.005-0.62,0.023-0.894,0.082c-1.265,0.269-1.997,1.153-2.043,2.053c-0.038,0.766-0.06,1.784,1.229,2.246
			c0.51,0.182,0.628-0.683,0.813-1.193c0.111-0.311,0.247-0.491,0.509-0.231c0.746,0.744,0.62,2.733,0.092,5.146
			c-0.082,0.37-0.305,1.214-0.601,2.294c-0.874,3.192-2.386,8.457-2.74,9.75c-0.436,1.587-1.85,6.644-2.935,9.518
			c-0.148,0.396-0.291,0.749-0.424,1.047c-1.064,2.383-2.856,4.132-4.112,4.461c-0.044,0.011-0.142-0.078-0.151-0.129
			c-0.174-0.898-1.058-1.321-2.102-1.321c-1.249,0-2.262,1.129-2.262,2.774c0,1.588,0.973,3.027,3.67,3.248
			c2.177,0.177,4.318-1.249,5.381-2.238c0.204-0.189,0.368-0.361,0.485-0.504c0.03-0.037,0.112-0.033,0.132,0.006
			c0.436,0.869,2.193,2.63,4.354,2.682c0.249,0.006,0.482-0.002,0.703-0.022c1.707-0.153,2.594-1.021,3.139-1.649
			c0.023-0.027,0.103-0.017,0.12,0.015c0.322,0.554,0.855,1.095,1.841,1.403c0.146,0.046,0.303,0.087,0.47,0.122
			c0.312,0.065,0.66,0.112,1.052,0.132c0.848,0.045,1.751-0.128,2.649-0.472c0.246-0.094,0.492-0.202,0.737-0.321
			c1.03-0.503,2.034-1.219,2.919-2.084c0.006-0.004,0.011-0.007,0.019-0.01c0.038-0.014,0.109-0.008,0.127,0.014
			c1.623,2.127,2.978,2.883,6.085,2.928c2.358,0.034,4.017-1.444,4.034-3.25C86.212,36.08,85.044,35.17,84.054,35.114z
			 M71.765,21.682c0.175-0.028,0.344-0.061,0.507-0.098c0.26-0.06,0.506-0.129,0.737-0.213c1.297-0.467,2.123-1.33,2.303-2.732
			c0.005-0.043,0.083-0.045,0.114,0c0.284,0.398,0.457,0.847,0.521,1.307c0.035,0.263,0.035,0.53,0,0.794
			c-0.171,1.259-1.158,2.443-2.938,2.777c-0.141,0.026-0.286,0.046-0.437,0.063c-0.102,0.01-0.202,0.017-0.301,0.022
			c-1.741,0.082-2.791-0.744-3.701-1.99c-0.114-0.155-0.225-0.316-0.335-0.483c-0.022-0.034,0.02-0.066,0.063-0.047l0.272,0.115
			C69.885,21.748,70.456,21.891,71.765,21.682z M72.271,30.393c-0.092-0.508-0.205-1.063-0.345-1.669
			c-0.01-0.04,0.095-0.144,0.095-0.144l0.25-0.043l0.737-0.125l0.233-0.041c0,0,0.139,0.057,0.146,0.09
			c0.22,0.946,0.528,2.637,0.612,3.35c0.282,2.383-0.11,3.942-0.992,4.242c-0.217,0.072-0.463,0.071-0.737-0.014
			c-0.043-0.014-0.089-0.029-0.135-0.048c-0.041-0.06,0.033-0.151,0.135-0.382C72.506,35.073,72.884,33.784,72.271,30.393z
			 M68.57,15.641l-0.47-1.877c-0.578-2.34-0.938-3.863-1.014-4.131c-0.275-0.985,0.708-2.756,0.915-2.313
			c0.021,0.043,0.055,0.145,0.099,0.297c0.103,0.344,0.264,0.948,0.47,1.748c0.644,2.492,1.727,6.864,2.805,11.038
			c0.072,0.279-1.473,0.4-1.558,0.083C69.351,18.716,68.933,17.08,68.57,15.641z M68.909,20.262
			c0.013,0.049-0.045,0.102-0.085,0.078c-0.088-0.051-0.173-0.106-0.254-0.165c-0.171-0.125-0.328-0.266-0.47-0.427
			c-0.382-0.437-0.65-1.006-0.769-1.71c-0.119-0.705,0.026-1.444,0.367-2.179c0.013-0.029,0.06-0.02,0.069,0.015l0.332,1.283
			l0.47,1.803L68.909,20.262z M67.322,14.155c-0.532,1.256-1.446,3.468-0.104,6.727c0.228,0.552,0.523,1.085,0.883,1.567
			c0.146,0.196,0.303,0.384,0.47,0.561c0.363,0.388,0.773,0.727,1.227,0.992c0.037,0.022,0.13,0.12,0.137,0.147
			c0.047,0.171,0.082,0.527,0.104,0.606c0.33,1.148-0.548,1.815-1.267,1.815h-5.158c-0.27,0-0.477-0.299-0.612-0.45
			c-0.225-0.25-0.253-0.838-0.048-1.59l0.048-0.23l3.524-12.869c0.028-0.105,0.058-0.12,0.085-0.016
			C66.709,11.798,66.977,12.82,67.322,14.155z M63.001,3.185c-0.512,0.338-0.759,0.933-0.761,1.561c0,0.043-0.067,0.071-0.101,0.042
			C61.758,4.453,61.515,4.19,61.6,3.49c0.078-0.626,0.568-1.19,1.401-1.431c0.313-0.089,0.673-0.134,1.077-0.12
			c1.23,0.046,2.607,1.199,3.613,2.039c0.032,0.027,0.166,0.018,0.202-0.015l0.207-0.18c0.157-0.136,0.314-0.269,0.47-0.4
			c0.861-0.72,1.714-1.308,2.777-1.333c0.336-0.009,0.645,0.015,0.924,0.066c0.278,0.052,0.525,0.131,0.737,0.234
			c0.584,0.281,0.906,0.735,0.885,1.263c-0.024,0.63-0.354,1.031-0.646,1.116c-0.029,0.009-0.077-0.07-0.076-0.116
			c0.002-0.197-0.055-0.414-0.163-0.625c-0.153-0.304-0.41-0.598-0.737-0.806c-0.469-0.297-1.084-0.423-1.755-0.152
			c-0.683,0.275-1.267,0.867-1.946,1.613l-0.47,0.516l-0.212,0.23c-0.027,0.031-0.137,0.03-0.162-0.002
			c-0.903-1.09-1.7-2.093-2.937-2.394C64.011,2.806,63.418,2.91,63.001,3.185z M57.326,32.515c0.511-1.066,1.049-2.472,1.672-4.462
			c1.056-3.699,2.728-9.785,4.003-14.549c0.876-3.272,1.564-5.921,1.738-6.747c0.147-0.437,1.079,1.018,1.006,1.456
			c-0.046,0.267-1.51,5.679-2.744,10.242c-0.796,2.936-1.494,5.519-1.657,6.149c-0.438,1.687,0.256,2.134,1.082,2.189
			c0.12,0.008,0.317,0.013,0.575,0.018c1.137,0.017,3.425,0,5.1-0.011l0.47-0.003l0.959-0.004c1.604,0,1.495-1.346,1.337-2.171
			c-0.026-0.123,1.122-0.138,1.405,0.002c0.026,0.012,0.046,0.026,0.055,0.043c0.08,0.127,0.246,0.456,0.288,1.031
			c0.022,0.324-0.093,0.711-0.343,1.055c-0.34,0.469-0.927,0.86-1.75,0.92c-0.414,0.027-1.118,0.046-1.951,0.055l-0.47,0.005
			c-1.725,0.015-3.837,0.005-5.1-0.002l-0.851-0.004c-1.267,0-1.597-0.218-2.095,1.244c-1.095,3.204-1.958,5.1-2.729,6.132
			c-0.849,1.134-1.588,1.223-2.407,0.852C55.802,35.015,56.531,34.179,57.326,32.515z M65.486,38.068
			c-0.103,1.198-1.013,2.011-2.485,2.228c-0.1,0.015-0.2,0.025-0.304,0.035c-2.193,0.194-3.667-1.652-4.692-2.963
			c-0.026-0.034-0.141-0.033-0.17,0.001c-0.154,0.178-0.325,0.361-0.509,0.545c-1.226,1.229-3.063,2.487-5.166,2.454
			c-2.275-0.037-3.01-1.532-3.005-2.735c0.005-1.041,0.766-1.681,1.537-1.681c0.771,0,1.468,0.543,1.468,1.276
			c0,0.805-0.433,1.178-0.929,1.234c-0.044,0.004-0.103,0.086-0.077,0.126c0.266,0.41,1.176,0.849,2.168,0.669
			c1.718-0.314,2.821-1.539,4.004-2.772c0.171-0.177,0.344-0.354,0.519-0.529c0.026-0.026,0.125-0.021,0.147,0.011
			c1.146,1.514,2.305,2.766,3.277,2.979c0.647,0.144,1.231,0.16,1.731-0.008c0.212-0.069,0.409-0.175,0.591-0.317
			c0.045-0.036,0.02-0.107-0.039-0.107c-0.191-0.011-0.383-0.073-0.552-0.18c-0.301-0.188-0.529-0.507-0.562-0.887
			c-0.036-0.439,0.132-0.943,0.562-1.263c0.212-0.157,0.487-0.269,0.835-0.306C64.882,35.77,65.591,36.864,65.486,38.068z
			 M65.982,36.591c-0.02,0.048-0.085,0.048-0.103,0.001c-0.351-1.012-1.1-1.478-1.943-1.478c-0.364,0-0.674,0.065-0.936,0.177
			c-0.67,0.283-1.026,0.87-1.159,1.445c-0.01,0.043-0.129,0.1-0.178,0.082c-1.246-0.478-1.255-3.038-1.078-3.916
			c0.221-1.095,0.825-2.572,1.156-3.339c0.229-0.531,0.721-0.782,1.259-0.887c0.238-0.045,0.485-0.062,0.723-0.062
			c0.771,0,1.469,0.036,1.873,0.018c0.77-0.038,0.993,0.283,1.258,0.547c0.037,0.037,0.192,0.183,0.227,0.146
			c0.31-0.328,0.496-0.454,1.02-0.454h0.028l0.441-0.151c0.495-0.01,1.043-0.1,1.633-0.069c1.047,0.055,1.286,1.333,1.561,3.303
			c0.389,2.783-0.51,4.327-1.361,4.867c-0.035,0.021-0.127-0.032-0.138-0.074c-0.218-0.804-0.726-1.48-1.694-1.606
			c-0.107-0.015-0.221-0.023-0.339-0.023l-0.131,0.001C66.974,35.15,66.373,35.616,65.982,36.591z M80.686,40.295
			c-2.166-0.395-3.09-1.178-4.634-2.971c-0.017-0.02-0.064-0.029-0.105-0.028c-0.026,0-0.05,0.006-0.061,0.016
			c-1.036,0.951-1.937,1.694-2.877,2.206c-0.243,0.132-0.487,0.249-0.737,0.351c-0.516,0.208-1.055,0.352-1.645,0.427
			c-0.78,0.099-1.474,0.016-2.057-0.189c-0.165-0.058-0.321-0.125-0.47-0.201c-0.979-0.506-1.549-1.382-1.563-2.217
			c-0.021-1.311,0.815-1.769,1.563-1.807l0.104-0.002c0.129,0,0.251,0.018,0.366,0.053c0.575,0.17,0.958,0.727,0.941,1.318
			c-0.019,0.628-0.477,0.988-0.941,1.091c-0.104,0.022-0.206,0.032-0.305,0.03c-0.039,0-0.089,0.067-0.073,0.104
			c0.076,0.185,0.208,0.347,0.378,0.482c0.527,0.424,1.423,0.604,2.167,0.499c0.519-0.074,1.014-0.238,1.534-0.515
			c0.239-0.127,0.483-0.276,0.737-0.451c0.817-0.563,1.741-1.391,2.938-2.551l0.024-0.023c0.025-0.024,0.124-0.013,0.148,0.016
			c1.437,1.772,2.244,2.801,3.832,3.23c1.707,0.464,2.724,0.227,3.433-0.246c0.057-0.038,0.044-0.103-0.011-0.102
			c-0.851,0.023-1.109-0.768-1.123-1.182c-0.022-0.658,0.491-1.572,1.634-1.496c0.934,0.063,1.545,1.057,1.464,1.932
			C85.202,39.674,83.293,40.77,80.686,40.295z M44.117,35.115c-1.473,0-1.828,0.756-2.079,1.379
			c-0.016,0.038-0.136,0.108-0.181,0.104c-0.95-0.104-1.563-0.781-2.289-2.18c-0.684-1.316-0.624-4.124-0.624-4.124
			s0.007-15.891,0.007-17.241c0-1.351-0.077-4.394,1.313-6.077c0.378-0.458,0.999-1.128,1.395-1.168
			c0.026-0.004,0.095,0.024,0.1,0.04c0.233,0.65,1.308,1.229,2.167,1.183c1.462-0.075,2.288-1.115,2.312-2.5
			c0.03-1.609-1.299-3.105-4.138-3.105c-3.122,0-5.69,2.593-5.937,2.849l-0.02,0.02c0,0-0.586-0.661-1.494-1.348
			c-0.983-0.745-2.344-1.521-3.746-1.521c-0.433,0-0.826,0.024-1.183,0.066c-1.079,0.124-1.83,0.407-2.332,0.676
			c-0.413,0.222-0.657,0.432-0.778,0.535c-0.708,0.606-0.294,1.296,0.294,1.058c0.148-0.06,0.313-0.126,0.484-0.186
			c0.436-0.149,0.912-0.259,1.276-0.124c1.286,0.474,0.516,2.964,0.019,4.813c-0.159,0.597-0.658,2.261-1.295,4.296
			c-1.335,4.268-3.271,10.161-3.937,11.221c-0.031,0.052-0.099,0.037-0.108-0.003c-0.177-0.872-0.453-2.613-0.453-3.188
			c0-0.601,1.33-3.096,0.587-6.259c-0.469-1.999-1.34-2.991-2.184-3.609c-0.49-0.357-0.971-0.59-1.36-0.821l-0.127-0.077
			c-0.491-1.355-1.09-3.5-1.368-5.03L18.43,4.751c-0.035-0.194-0.028-0.351,0.008-0.474c0.166-0.56,0.964-0.464,1.495-0.368
			l0.296,0.056c0.537,0.097,0.966-0.405,0.419-0.912c-0.164-0.152-0.392-0.359-0.715-0.574c-0.363-0.242-0.847-0.496-1.495-0.691
			c-0.626-0.191-1.405-0.331-2.378-0.358c-0.115-0.003-0.234-0.005-0.355-0.005c-2.335,0-5.264,2.076-5.264,2.076
			S9.815,3.077,8.887,2.611c-1.137-0.569-2.729-1.2-4.185-1.195c-2.434,0.009-4.097,1.091-3.95,3.306
			c0.083,1.255,1.06,2.033,2.104,2.08c1.101,0,2.072-0.615,2.222-1.459C5.079,5.32,5.138,5.303,5.163,5.316
			c1.028,0.487,2.192,1.135,2.676,4.179c0.423,2.662,0.441,4.98,0.441,4.98s0.262,11.389,0.165,14.891
			c-0.109,3.885-1.056,6.9-2.611,7.616c-0.023,0.01-0.077-0.022-0.082-0.049c-0.145-0.842-0.616-1.817-2.227-1.782
			c-1.478,0.032-2.595,1.364-2.552,2.737c0.057,1.751,1.578,3.194,3.946,3.229c1.693,0.024,3.032-0.643,3.967-1.343
			c0.798-0.598,1.301-1.219,1.473-1.448c0.046-0.059,0.087-0.061,0.123-0.003c0.317,0.493,1.99,2.847,4.909,2.847
			c0.233,0,0.455-0.009,0.668-0.028c1.032-0.089,1.82-0.392,2.378-0.841c0.633-0.511,0.965-1.21,1.013-2.001
			c0.077-1.282-0.328-2.258-1.013-2.773c-0.354-0.268-0.784-0.412-1.262-0.412c-0.439,0-0.811,0.074-1.116,0.205
			c-0.668,0.288-1.03,0.847-1.157,1.496c-0.005,0.027-0.082,0.063-0.115,0.051c-0.826-0.321-1.518-1.26-1.992-2.518
			c-0.496-1.314-0.551-3.996-0.551-3.996s-0.056-13.14-0.056-15.165c0-1.24,0.157-5.693,0.626-6.619
			c0.012-0.021,0.074-0.027,0.094-0.008c1.254,1.165,2.697,6.693,2.86,7.393c-0.283,0.69-1.193,1.966-0.717,3.887
			c0.207,0.833,0.573,1.489,1.008,1.982c0.424,0.481,0.912,0.811,1.384,1.002c0.063,0.245,0.485,1.931,0.994,4.28
			c0.504,2.331,1.092,5.318,1.495,8.214c0.229,1.648,0.399,3.271,0.46,4.723c0.026,0.602,0.166,0.875,0.771,0.875
			c0.045,0,0.088-0.007,0.13-0.02c0.539-0.155,0.936-1.234,1.396-1.185c0.495,0.056,1.01,1.149,1.449,1.149
			c0.606,0,0.661-0.492,0.827-1.806c0.572-4.563,1.531-8.664,2.423-12.223c0.307-1.229,0.606-2.394,0.881-3.488
			c0.354-1.428,0.878-3.286,1.451-5.183c1.108-3.672,2.399-7.476,3.006-8.515c0.019-0.031,0.089-0.025,0.106,0.004
			c0.938,1.602,0.832,6.028,0.832,6.028s-0.098,11.88-0.165,15.056c-0.065,3.093-1.1,5.375-2.66,5.947
			c-0.033,0.013-0.121-0.033-0.134-0.07c-0.133-0.352-0.43-0.817-0.985-1.109c-0.321-0.171-0.728-0.282-1.237-0.282
			c-0.393,0-0.763,0.072-1.095,0.212c-0.935,0.392-1.573,1.307-1.579,2.601c-0.006,0.953,0.492,1.986,1.579,2.599
			c0.574,0.322,1.314,0.51,2.231,0.51h0.101c1.923,0,3.468-0.542,4.929-1.454c0.51-0.317,1.011-0.674,1.514-1.077l0.037-0.025
			c0.035-0.028,0.16-0.025,0.188,0.004c1.673,1.627,3.196,2.58,5.687,2.58c2.753,0,4.241-1.606,4.328-3.372
			C46.471,36.443,45.659,35.115,44.117,35.115z M20.215,11.118c0.162,0.1,0.625,0.406,1.078,0.906
			c0.365,0.403,0.725,0.929,0.918,1.578c0.516,1.723-0.125,3.208-0.328,3.613c-0.036,0.072-0.083,0.012-0.083,0.012l-0.507-1.895
			l-1.115-4.163C20.178,11.169,20.177,11.095,20.215,11.118z M8.262,34.677c0.285-0.805,0.542-2.484,0.623-4.981l0.002-0.054
			c0.032-1.099,0.025-4.126,0-7.371c-0.035-4.52-0.105-9.467-0.156-10.225C8.486,8.348,8.082,7.763,7.968,7.414
			C7.88,7.15,7.63,6.717,7.948,6.976c0.156,0.127,0.553,0.505,0.938,1.051c0.402,0.568,0.792,1.32,0.885,2.161
			c0.225,2.028,0.238,17.317,0.183,19.454c-0.043,1.688-0.601,3.399-1.067,4.401c-0.123,0.264-0.24,0.479-0.34,0.631
			C8.317,35.025,8.157,34.97,8.262,34.677z M14.887,39.549c0.471,0.032,0.858,0.004,1.173-0.068
			c0.715-0.168,1.056-0.572,1.146-1.055c0.005-0.025-0.035-0.062-0.058-0.053c-0.397,0.144-0.797,0.02-1.089-0.24
			c-0.264-0.234-0.438-0.581-0.438-0.938c0-0.411,0.175-0.708,0.438-0.91c0.324-0.247,0.781-0.349,1.214-0.329
			c0.477,0.02,0.891,0.271,1.164,0.691c0.203,0.313,0.328,0.718,0.341,1.188c0.015,0.543-0.102,1.03-0.341,1.438
			c-0.422,0.72-1.227,1.2-2.378,1.317c-0.283,0.028-0.589,0.034-0.915,0.018c-2.017-0.105-4.106-2.408-4.623-3.188
			c-0.015-0.021-0.071-0.021-0.089-0.003c-0.359,0.421-0.891,1.005-1.546,1.552C7.888,39.801,6.6,40.545,5.195,40.48
			c-2.254-0.105-3.358-1.315-3.358-2.683c0-1.096,0.771-1.643,1.706-1.643c0.938,0,1.268,0.603,1.268,1.367
			c0,0.747-0.888,1.234-1.681,0.703c-0.021-0.013-0.041,0.026-0.027,0.063c0.271,0.719,1.16,1.314,2.313,1.314
			c0.895,0,2.059-0.721,3.471-2.021c0.488-0.448,1.006-0.967,1.553-1.549c0.016-0.016,0.068-0.013,0.082,0.003
			C11.62,37.395,13.146,39.43,14.887,39.549z M10.396,5.993c-0.026,0.035-0.135,0.034-0.167-0.009
			C9.968,5.641,9.519,5.081,8.887,4.528C8.298,4.015,7.551,3.507,6.65,3.188C5.634,2.83,4.482,2.875,3.531,3.314
			C3.452,3.351,3.414,3.424,3.47,3.428c0.596,0.03,0.904,0.573,0.904,1.221c0,0.754-0.66,1.289-1.493,1.266
			C2.219,5.895,1.396,5.599,1.413,4.284C1.438,2.411,3.49,1.799,5.086,1.886c1.278,0.068,2.708,0.709,3.801,1.448
			C9.455,3.718,9.933,4.13,10.249,4.5c0.044,0.049,0.193,0.056,0.237,0.007c0.646-0.711,2.429-1.765,3.355-2.076
			c0.593-0.198,1.402-0.348,2.218-0.381c0.871-0.036,1.748,0.061,2.378,0.377c0.101,0.051,0.193,0.107,0.279,0.168
			c0.042,0.03,0.007,0.12-0.051,0.111l-0.229-0.036c-0.87-0.125-1.663-0.152-2.378-0.092c-0.877,0.073-1.633,0.277-2.263,0.586
			C12.108,3.994,11.067,5.095,10.396,5.993z M15.252,11.997c-1.039-3.504-1.951-4.079-2.055-4.428
			c0.251-0.097,1.773,0.024,2.862,1.864c0.207,0.347,0.396,0.758,0.561,1.24c0.591,1.477,1.337,4.288,1.817,6.202
			c0.287,1.148,0.479,1.974,0.483,1.994c-0.135,0-0.305-0.005-0.483-0.019c-0.505-0.041-1.1-0.148-1.35-0.417
			c-0.247-0.987-0.654-2.418-1.028-3.704C15.713,13.536,15.393,12.469,15.252,11.997z M21.293,36.479
			c-0.095,0.189-0.191,0.266-0.275,0.191c-0.308-1.588-0.72-4.193-1.085-5.993c-0.044-0.212-0.086-0.414-0.128-0.602
			c-0.454-2.039-0.899-4.143-1.367-5.959c-0.112-0.437-0.227-0.856-0.343-1.256c0.062,0.015,0.177,0.062,0.343,0.105
			c0.307,0.079,0.779,0.152,1.374,0.007l0.121,0.535c0.262,1.144,0.896,3.891,1.36,6.123c0.103,0.494,0.196,0.962,0.276,1.382
			C21.998,33.256,21.659,35.736,21.293,36.479z M21.293,21.204c-0.395,0.336-0.852,0.604-1.36,0.747
			c-0.119,0.034-0.241,0.061-0.365,0.08c-0.415,0.066-0.792,0.064-1.13,0.009c-1.247-0.198-1.99-1.117-2.378-2.124
			c-0.105-0.272-0.185-0.554-0.239-0.827c-0.007-0.029,0.021-0.045,0.041-0.027l0.198,0.193c0.804,0.761,1.476,1.158,2.378,1.214
			c0.236,0.016,0.489,0.007,0.764-0.025c0.242-0.027,0.487-0.08,0.731-0.151c0.471-0.141,0.935-0.357,1.36-0.631
			c0.621-0.399,1.164-0.919,1.529-1.492c0.017-0.026,0.053-0.022,0.054,0.009C22.896,19.034,22.3,20.345,21.293,21.204z
			 M30.91,7.195c-0.14,0.799-0.591,2.416-1.19,4.402c-0.667,2.202-1.517,4.854-2.332,7.337c-1.404,4.277-2.704,8.054-2.772,8.16
			c-0.147,0.226-1.124-1.961-0.662-2.858c0.614-1.521,1.648-4.614,2.704-7.8l0.73-2.218c1.091-3.336,1.925-5.998,2.332-7.751
			c0.106-0.459,0.185-0.856,0.23-1.187C30.097,4.217,31.142,5.883,30.91,7.195z M32.673,3.308c-0.881-0.516-1.828-0.857-2.953-0.937
			c-0.374-0.025-0.767-0.024-1.183,0.01c-0.036,0.003-0.059-0.018-0.03-0.03c0.374-0.18,0.789-0.276,1.213-0.311
			c1.234-0.102,2.554,0.312,3.229,0.666c0.479,0.25,1.114,0.729,1.7,1.202c0.63,0.509,1.201,1.01,1.458,1.207
			c0.012,0.009,0.034,0.012,0.056,0.011c0.025-0.002,0.052-0.01,0.062-0.021c0.968-1.105,3.206-3.023,5.315-3.13
			c2.422-0.123,3.799,1.003,3.854,2.317c0.055,1.315-0.649,2.077-1.506,2.118c-0.925,0.043-1.566-0.533-1.56-1.351
			c0.006-0.865,0.785-1.227,1.254-1.229c0.036,0,0.061-0.049,0.036-0.076c-0.473-0.55-1.438-0.974-3.181-0.5
			c-1.953,0.531-3.685,2.676-4.207,3.368c-0.012,0.015-0.04,0.022-0.068,0.02c-0.021,0-0.044-0.008-0.053-0.02
			c-0.371-0.441-0.891-1.047-1.461-1.638C34.006,4.321,33.3,3.675,32.673,3.308z M34.196,28.237
			c0.02-0.765,0.074-11.105,0.062-12.176c-0.073-5.962-1.053-7.568-0.93-7.835c0.51,0.059,0.95,0.227,1.32,0.586
			c0.975,0.944,1.443,3.226,1.309,8.365c-0.01,1.046-0.04,10.903-0.096,12.051c-0.116,2.571-0.128,5.047-1.213,5.75
			c-0.303,0.195-0.688,0.255-1.184,0.138C33.254,35.038,34.037,34.455,34.196,28.237z M42.043,40.389
			c-2.577,0.106-4.569-1.656-5.687-2.826c-0.025-0.027-0.119-0.031-0.144-0.008l-0.051,0.052c-0.39,0.388-0.891,0.863-1.514,1.316
			c-1.157,0.84-2.738,1.603-4.809,1.592l-0.12-0.003c-0.979-0.027-1.791-0.311-2.332-0.809c-0.508-0.467-0.778-1.119-0.73-1.925
			c0.042-0.702,0.354-1.172,0.73-1.46c0.348-0.27,0.752-0.383,1.047-0.383c0.489,0,1.057,0.32,1.285,0.844
			c0.058,0.132,0.093,0.277,0.101,0.435c0.012,0.238-0.027,0.448-0.101,0.627c-0.195,0.47-0.64,0.724-1.091,0.714
			c-0.044,0-0.118,0.074-0.105,0.115c0.117,0.371,0.525,0.639,1.196,0.74c0.471,0.068,1.07,0.057,1.791-0.064
			c1.044-0.174,2.153-0.863,3.138-1.687c0.552-0.461,1.064-0.965,1.503-1.444l0.011-0.007c0.037-0.02,0.129-0.013,0.157,0.017
			c1.48,1.477,3.09,3.123,5.186,3.179c1.216,0.033,2.112-0.47,2.431-0.89c0.034-0.044-0.003-0.113-0.046-0.107
			c-0.643,0.08-1.259-0.475-1.259-1.192c0-0.767,0.466-1.333,1.509-1.333c1.042,0,1.533,0.73,1.533,1.825
			C45.673,39.074,44.554,40.284,42.043,40.389z M183.616,35.114c-1.284-0.07-2.11,0.618-2.503,1.565
			c-0.021,0.049-0.163,0.133-0.217,0.119c-1.011-0.267-2.013-2.055-2.902-3.929c-0.523-1.102-1.521-4.392-2.485-7.807l-0.449-1.606
			c-0.008-0.023,0.021-0.107,0.042-0.128c0.147-0.14,0.283-0.284,0.407-0.439c1.147-1.428,1.232-3.434,0-4.948
			c-0.334-0.411-0.763-0.785-1.296-1.102c-0.035-0.021-0.081,0.034-0.067,0.083c0.203,0.764,0.195,1.544-0.167,2.208
			c-0.019,0.035-0.081,0.028-0.091-0.01c-0.129-0.492-0.247-0.951-0.354-1.361c-0.304-1.18-0.64-2.504-0.963-3.854
			c-0.264-1.093-0.517-2.201-0.737-3.264c-0.696-3.342-1.064-6.214-0.338-6.623c0.16-0.09,0.267-0.071,0.338,0.016
			c0.294,0.354,0.013,1.851,0.598,1.645l0.14-0.051c0.888-0.34,1.726-0.964,1.568-2.266c-0.088-0.72-0.646-1.378-1.568-1.72
			c-0.225-0.084-0.471-0.149-0.737-0.192c-0.21-0.034-0.433-0.054-0.668-0.058c-1.327-0.025-2.223,0.458-3.035,1.123
			c-0.157,0.13-0.313,0.267-0.468,0.408L167.367,3.2c-1.157-1.041-2.103-1.775-3.91-1.807c-0.322-0.005-0.621,0.023-0.894,0.082
			c-1.265,0.269-1.998,1.153-2.043,2.053c-0.039,0.766-0.062,1.784,1.229,2.246c0.51,0.182,0.629-0.683,0.814-1.193
			c0.11-0.311,0.247-0.491,0.508-0.231c0.747,0.744,0.62,2.733,0.092,5.146c-0.081,0.37-0.305,1.214-0.6,2.294
			c-0.875,3.192-2.387,8.457-2.741,9.75c-0.436,1.587-1.849,6.644-2.934,9.518c-0.148,0.396-0.292,0.749-0.425,1.047
			c-1.064,2.383-2.855,4.132-4.112,4.461c-0.044,0.011-0.141-0.078-0.15-0.129c-0.175-0.898-1.059-1.321-2.102-1.321
			c-1.25,0-2.262,1.129-2.262,2.774c0,1.588,0.973,3.027,3.671,3.248c2.176,0.177,4.316-1.249,5.38-2.238
			c0.204-0.189,0.366-0.361,0.485-0.504c0.029-0.037,0.112-0.033,0.131,0.006c0.436,0.869,2.193,2.63,4.354,2.682
			c0.25,0.006,0.483-0.002,0.704-0.022c1.707-0.153,2.593-1.021,3.139-1.649c0.022-0.027,0.102-0.017,0.12,0.015
			c0.321,0.554,0.855,1.095,1.841,1.403c0.146,0.046,0.303,0.087,0.468,0.122c0.313,0.065,0.662,0.112,1.053,0.132
			c0.849,0.045,1.752-0.128,2.65-0.472c0.246-0.094,0.492-0.202,0.737-0.321c1.03-0.503,2.034-1.219,2.919-2.084
			c0.004-0.004,0.011-0.007,0.019-0.01c0.038-0.014,0.109-0.008,0.127,0.014c1.623,2.127,2.978,2.883,6.084,2.928
			c2.359,0.034,4.017-1.444,4.035-3.25C185.774,36.08,184.606,35.17,183.616,35.114z M171.326,21.682
			c0.176-0.028,0.345-0.061,0.508-0.098c0.26-0.06,0.506-0.129,0.737-0.213c1.296-0.467,2.123-1.33,2.303-2.732
			c0.004-0.043,0.082-0.045,0.114,0c0.284,0.398,0.457,0.847,0.521,1.307c0.034,0.263,0.034,0.53,0,0.794
			c-0.171,1.259-1.158,2.443-2.938,2.777c-0.141,0.026-0.287,0.046-0.437,0.063c-0.103,0.01-0.202,0.017-0.301,0.022
			c-1.741,0.082-2.791-0.744-3.703-1.99c-0.113-0.155-0.223-0.316-0.333-0.483c-0.022-0.034,0.02-0.066,0.063-0.047l0.271,0.115
			C169.447,21.748,170.019,21.891,171.326,21.682z M171.834,30.393c-0.093-0.508-0.205-1.063-0.345-1.669
			c-0.01-0.04,0.095-0.144,0.095-0.144l0.25-0.043l0.737-0.125l0.233-0.041c0,0,0.139,0.057,0.146,0.09
			c0.221,0.946,0.528,2.637,0.612,3.35c0.283,2.383-0.109,3.942-0.991,4.242c-0.217,0.072-0.463,0.071-0.737-0.014
			c-0.045-0.014-0.09-0.029-0.136-0.048c-0.041-0.06,0.034-0.151,0.136-0.382C172.068,35.073,172.445,33.784,171.834,30.393z
			 M168.131,15.641l-0.468-1.877c-0.578-2.34-0.939-3.863-1.015-4.131c-0.275-0.985,0.709-2.756,0.916-2.313
			c0.02,0.043,0.053,0.145,0.099,0.297c0.102,0.344,0.263,0.948,0.468,1.748c0.646,2.492,1.729,6.864,2.807,11.038
			c0.073,0.279-1.473,0.4-1.558,0.083C168.913,18.716,168.495,17.08,168.131,15.641z M168.472,20.262
			c0.013,0.049-0.045,0.102-0.085,0.078c-0.088-0.051-0.173-0.106-0.256-0.165c-0.169-0.125-0.326-0.266-0.468-0.427
			c-0.383-0.437-0.651-1.006-0.769-1.71c-0.119-0.705,0.025-1.444,0.367-2.179c0.013-0.029,0.06-0.02,0.068,0.015l0.333,1.283
			l0.468,1.803L168.472,20.262z M166.885,14.155c-0.533,1.256-1.446,3.468-0.104,6.727c0.227,0.552,0.523,1.085,0.883,1.567
			c0.146,0.196,0.303,0.384,0.468,0.561c0.364,0.388,0.775,0.727,1.228,0.992c0.038,0.022,0.131,0.12,0.138,0.147
			c0.046,0.171,0.082,0.527,0.104,0.606c0.331,1.148-0.548,1.815-1.266,1.815h-5.158c-0.27,0-0.477-0.299-0.612-0.45
			c-0.225-0.25-0.253-0.838-0.048-1.59l0.048-0.23l3.524-12.869c0.028-0.105,0.058-0.12,0.085-0.016
			C166.271,11.798,166.539,12.82,166.885,14.155z M162.563,3.185c-0.513,0.338-0.759,0.933-0.761,1.561
			c0,0.043-0.067,0.071-0.102,0.042c-0.381-0.335-0.624-0.598-0.538-1.298c0.075-0.626,0.565-1.19,1.4-1.431
			c0.312-0.089,0.672-0.134,1.077-0.12c1.23,0.046,2.606,1.199,3.613,2.039c0.032,0.027,0.166,0.018,0.201-0.015l0.208-0.18
			c0.157-0.136,0.313-0.269,0.468-0.4c0.863-0.72,1.717-1.308,2.779-1.333c0.336-0.009,0.645,0.015,0.924,0.066
			c0.277,0.052,0.525,0.131,0.737,0.234c0.584,0.281,0.906,0.735,0.885,1.263c-0.024,0.63-0.355,1.031-0.646,1.116
			c-0.03,0.009-0.077-0.07-0.076-0.116c0.002-0.197-0.056-0.414-0.163-0.625c-0.153-0.304-0.411-0.598-0.737-0.806
			c-0.469-0.297-1.084-0.423-1.755-0.152c-0.684,0.275-1.267,0.867-1.948,1.613l-0.468,0.516l-0.212,0.23
			c-0.028,0.031-0.137,0.03-0.162-0.002c-0.903-1.09-1.7-2.093-2.937-2.394C163.573,2.806,162.98,2.91,162.563,3.185z
			 M156.889,32.515c0.511-1.066,1.049-2.472,1.672-4.462c1.056-3.699,2.728-9.785,4.003-14.549c0.875-3.272,1.564-5.921,1.737-6.747
			c0.148-0.437,1.079,1.018,1.005,1.456c-0.044,0.267-1.508,5.679-2.742,10.242c-0.796,2.936-1.494,5.519-1.657,6.149
			c-0.438,1.687,0.257,2.134,1.082,2.189c0.119,0.008,0.317,0.013,0.575,0.018c1.136,0.017,3.424,0,5.1-0.011l0.468-0.003
			l0.961-0.004c1.604,0,1.495-1.346,1.337-2.171c-0.027-0.123,1.122-0.138,1.405,0.002c0.026,0.012,0.045,0.026,0.055,0.043
			c0.08,0.127,0.246,0.456,0.288,1.031c0.022,0.324-0.093,0.711-0.343,1.055c-0.34,0.469-0.927,0.86-1.75,0.92
			c-0.414,0.027-1.119,0.046-1.953,0.055l-0.468,0.005c-1.726,0.015-3.837,0.005-5.1-0.002l-0.85-0.004
			c-1.268,0-1.598-0.218-2.096,1.244c-1.095,3.204-1.958,5.1-2.729,6.132c-0.849,1.134-1.588,1.223-2.407,0.852
			C155.364,35.015,156.093,34.179,156.889,32.515z M165.049,38.068c-0.103,1.198-1.013,2.011-2.485,2.228
			c-0.1,0.015-0.2,0.025-0.305,0.035c-2.193,0.194-3.666-1.652-4.691-2.963c-0.027-0.034-0.141-0.033-0.171,0.001
			c-0.154,0.178-0.324,0.361-0.508,0.545c-1.226,1.229-3.063,2.487-5.166,2.454c-2.275-0.037-3.011-1.532-3.005-2.735
			c0.005-1.041,0.766-1.681,1.536-1.681c0.771,0,1.469,0.543,1.469,1.276c0,0.805-0.433,1.178-0.93,1.234
			c-0.045,0.004-0.102,0.086-0.076,0.126c0.265,0.41,1.176,0.849,2.168,0.669c1.719-0.314,2.821-1.539,4.004-2.772
			c0.17-0.177,0.343-0.354,0.519-0.529c0.026-0.026,0.125-0.021,0.146,0.011c1.147,1.514,2.306,2.766,3.278,2.979
			c0.647,0.144,1.229,0.16,1.731-0.008c0.212-0.069,0.409-0.175,0.59-0.317c0.046-0.036,0.021-0.107-0.038-0.107
			c-0.191-0.011-0.383-0.073-0.552-0.18c-0.301-0.188-0.529-0.507-0.562-0.887c-0.036-0.439,0.132-0.943,0.562-1.263
			c0.212-0.157,0.487-0.269,0.834-0.306C164.444,35.77,165.153,36.864,165.049,38.068z M165.543,36.591
			c-0.018,0.048-0.084,0.048-0.101,0.001c-0.351-1.012-1.1-1.478-1.943-1.478c-0.364,0-0.675,0.065-0.936,0.177
			c-0.67,0.283-1.026,0.87-1.159,1.445c-0.011,0.043-0.13,0.1-0.178,0.082c-1.247-0.478-1.256-3.038-1.078-3.916
			c0.22-1.095,0.825-2.572,1.156-3.339c0.228-0.531,0.721-0.782,1.259-0.887c0.238-0.045,0.485-0.062,0.723-0.062
			c0.771,0,1.469,0.036,1.871,0.018c0.771-0.038,0.995,0.283,1.259,0.547c0.038,0.037,0.192,0.183,0.228,0.146
			c0.309-0.328,0.495-0.454,1.02-0.454h0.028l0.439-0.151c0.497-0.01,1.045-0.1,1.635-0.069c1.046,0.055,1.284,1.333,1.561,3.303
			c0.389,2.783-0.51,4.327-1.362,4.867c-0.035,0.021-0.126-0.032-0.137-0.074c-0.22-0.804-0.726-1.48-1.696-1.606
			c-0.105-0.015-0.219-0.023-0.337-0.023l-0.131,0.001C166.536,35.15,165.936,35.616,165.543,36.591z M180.247,40.295
			c-2.165-0.395-3.089-1.178-4.633-2.971c-0.017-0.02-0.064-0.029-0.105-0.028c-0.027,0-0.05,0.006-0.062,0.016
			c-1.035,0.951-1.936,1.694-2.876,2.206c-0.243,0.132-0.487,0.249-0.737,0.351c-0.516,0.208-1.055,0.352-1.646,0.427
			c-0.78,0.099-1.472,0.016-2.058-0.189c-0.164-0.058-0.32-0.125-0.468-0.201c-0.979-0.506-1.549-1.382-1.563-2.217
			c-0.022-1.311,0.815-1.769,1.563-1.807l0.103-0.002c0.128,0,0.252,0.018,0.365,0.053c0.576,0.17,0.96,0.727,0.943,1.318
			c-0.019,0.628-0.476,0.988-0.943,1.091c-0.102,0.022-0.205,0.032-0.304,0.03c-0.038,0-0.088,0.067-0.073,0.104
			c0.076,0.185,0.209,0.347,0.377,0.482c0.529,0.424,1.424,0.604,2.167,0.499c0.521-0.074,1.016-0.238,1.536-0.515
			c0.238-0.127,0.483-0.276,0.737-0.451c0.816-0.563,1.741-1.391,2.938-2.551l0.024-0.023c0.024-0.024,0.124-0.013,0.148,0.016
			c1.437,1.772,2.243,2.801,3.831,3.23c1.708,0.464,2.725,0.227,3.434-0.246c0.056-0.038,0.044-0.103-0.013-0.102
			c-0.85,0.023-1.107-0.768-1.121-1.182c-0.022-0.658,0.49-1.572,1.633-1.496c0.935,0.063,1.546,1.057,1.465,1.932
			C184.764,39.674,182.854,40.77,180.247,40.295z M141.004,5.661c0.054-0.038,0.183,0.009,0.203,0.069
			c0.213,0.629,1.046,1.374,2.293,1.351c1.419-0.023,2.385-0.996,2.387-2.59c0-1.911-1.846-3.125-3.746-3.104
			c-3.006,0.036-5.062,1.158-6.916,2.414c-0.035,0.024-0.121,0.035-0.207,0.033c-0.083-0.002-0.166-0.015-0.199-0.039
			c-0.762-0.553-1.586-1.056-2.451-1.46c-0.521-0.241-1.055-0.448-1.6-0.605c-0.723-0.208-1.462-0.332-2.21-0.343
			c-2.14-0.033-3.646,1.29-3.744,2.848c-0.113,1.798,1.142,2.813,2.324,2.871c0.922,0.046,1.715-0.297,2.19-1.108
			c0.03-0.051,0.202-0.096,0.257-0.066c0.46,0.255,0.851,0.57,1.183,0.928c0.894,0.963,1.359,2.242,1.6,3.543
			c0.123,0.67,0.187,1.346,0.22,1.989c0.004,0.058-0.072,0.211-0.114,0.23l-0.105,0.053c-0.512,0.251-1.06,0.549-1.6,0.913
			c-1.708,1.149-3.337,2.949-3.458,5.977c-0.196,4.891,2.711,6.897,2.104,10c-0.342,1.751-2.128,1.192-2.031,1.68
			c0,0.631,2.105,0.583,2.791-1.096c0.618-1.517,0.095-3.555-0.995-5.956c-0.069-0.153-0.021-0.214,0.077-0.09
			c0.482,0.617,0.966,1.216,1.512,1.745c0.451,0.438,0.945,0.83,1.516,1.148c0.022,0.012,0.053,0.047,0.084,0.092
			c0.076,0.109,0.156,0.284,0.156,0.36c-0.012,0.724-0.066,1.409-0.156,2.055c-0.281,2.005-0.902,3.631-1.6,4.838
			c-0.543,0.938-1.134,1.625-1.645,2.044c-0.051,0.04-0.158-0.023-0.17-0.092c-0.121-0.682-0.742-1.315-2.012-1.326
			c-1.24-0.011-2.442,0.803-2.495,2.773c-0.049,1.8,1.165,3.431,4.111,3.431c0.814,0,1.546-0.113,2.21-0.304
			c0.582-0.166,1.113-0.391,1.6-0.649c1.063-0.565,1.917-1.292,2.65-1.914l0.029-0.024c0.041-0.034,0.19-0.017,0.228,0.027
			c0.878,1.012,2.939,2.864,6.793,2.864c1.803,0,3.573-1.631,3.636-3.175c0.073-1.861-1.122-2.993-2.314-2.993
			c-1.332,0-1.98,0.571-2.197,1.114c-0.022,0.056-0.172,0.098-0.23,0.062c-2.207-1.36-2.858-5.557-2.858-7.928
			c0-0.28,0.017-0.599,0.05-1.332c0.003-0.058,0.111-0.253,0.161-0.287c0.697-0.485,1.135-0.91,1.441-1.521
			c1.072-2.131,0.71-4.1-1.19-6.116c-0.028-0.03-0.085-0.188-0.084-0.234c0.129-3.841,0.249-7.607,0.283-8.686
			C138.834,7.913,139.887,6.485,141.004,5.661z M132.367,7.362c-0.177-0.448-0.28-0.626-0.211-0.694
			c0.045-0.053,0.117-0.107,0.211-0.152c0.604-0.285,2.078-0.055,2.65,4.567c0.095,0.765,0.164,1.648,0.201,2.672
			c0.037,0.805,0.128,5.2,0.078,9.104c0,0.104-0.111,0.183-0.279,0.239c-0.518,0.172-1.572,0.122-1.569-0.093
			c0.044-3.146,0.096-5.187,0.09-6.749C133.521,10.734,132.761,8.369,132.367,7.362z M129.541,21.021
			c-1.027-1.973-0.617-4.047,0.272-5.069c0.279-0.321,0.603-0.623,0.954-0.904c0.482-0.386,1.018-0.733,1.579-1.036
			c0.005-0.002,0.012-0.004,0.021-0.002c0.047,0.002,0.116,0.069,0.119,0.123c0.016,0.335,0.049,0.632,0.065,0.97
			c0.093,1.94,0.028,4.538-0.044,7.434c-0.002,0.05-0.077,0.132-0.141,0.164c-0.021,0.01-0.039,0.015-0.055,0.013
			c-0.547-0.073-1.078-0.22-1.545-0.471C130.261,21.971,129.83,21.578,129.541,21.021z M132.367,33.469
			c0.26-0.526,0.761-1.756,1.036-4.779c0.021-0.223,0.024-0.598,0.034-1.086c0.006-0.215,1.334-0.184,1.58,0.09
			c0.018,0.021,0.03,0.041,0.036,0.064c-0.007,0.182-0.021,0.453-0.036,0.738c-0.03,0.515-0.065,1.066-0.07,1.147
			c-0.229,4.097-2.032,4.334-2.58,4.261c-0.065-0.009-0.113-0.021-0.138-0.032C132.159,33.827,132.229,33.748,132.367,33.469z
			 M139.131,38.86c2.602,0.927,3.707,0.12,4.036-0.546c0.033-0.068-0.056-0.153-0.125-0.146c-0.53,0.049-1.136-0.503-1.12-1.085
			c0.024-0.924,0.623-1.434,1.442-1.411c0.907,0.024,1.458,0.463,1.494,1.813c0.049,1.787-2.048,3.335-4.735,2.725
			c-1.94-0.441-3.131-1.335-4.742-3.085c-0.035-0.039-0.196-0.047-0.243-0.012l-0.12,0.09c-0.978,0.731-1.819,1.389-2.65,1.912
			c-0.527,0.332-1.05,0.609-1.6,0.818c-0.52,0.198-1.064,0.335-1.658,0.397c-2.301,0.244-3.855-1.276-3.929-2.519
			c-0.073-1.24,0.611-2.129,1.761-2.152c0.784-0.017,1.301,0.45,1.286,1.35c-0.012,0.662-0.593,1.088-1.116,1.069
			c-0.074-0.002-0.139,0.098-0.091,0.164c0.431,0.597,1.332,1.161,3.019,0.701c0.25-0.068,0.492-0.146,0.729-0.231
			c0.568-0.206,1.098-0.461,1.6-0.75c0.965-0.558,1.824-1.244,2.65-1.963l0.252-0.221c0.039-0.033,0.188-0.004,0.225,0.045
			C136.395,37.061,137.393,38.239,139.131,38.86z M138.679,21.261c0.008-0.078,0.116-0.081,0.164-0.003
			c1.197,2.003-0.032,4.124-1.951,4.803c-0.637,0.225-1.265,0.318-1.874,0.304c-0.944-0.022-1.843-0.302-2.65-0.745
			c-0.586-0.322-1.125-0.73-1.6-1.189c-0.138-0.133-0.269-0.27-0.395-0.409c-0.057-0.062-0.013-0.106,0.063-0.069
			c0.111,0.041,0.221,0.082,0.332,0.12c0.542,0.188,1.079,0.324,1.6,0.416c0.984,0.172,1.901,0.186,2.65,0.085
			c0.502-0.066,0.93-0.184,1.25-0.337C137.421,23.685,138.553,22.552,138.679,21.261z M135.202,6.171
			c-0.03,0.027-0.108,0.043-0.185,0.044c-0.073,0-0.144-0.012-0.172-0.036c-0.983-0.887-1.682-1.533-2.479-2.006
			c-0.473-0.28-0.979-0.499-1.6-0.67c-0.34-0.094-0.713-0.173-1.133-0.241c-1.459-0.234-2.088,0.165-2.355,0.546
			c-0.037,0.054,0.028,0.15,0.088,0.156c0.519,0.038,0.982,0.511,0.982,1.038c0,0.584-0.294,1.209-1.346,1.192
			c-0.844-0.011-1.433-0.741-1.42-2.03c0.011-1.193,1.396-2.228,3.377-2.008c0.58,0.064,1.189,0.219,1.807,0.441
			c0.533,0.194,1.072,0.438,1.6,0.721c0.871,0.467,1.709,1.036,2.437,1.644c0.034,0.028,0.128,0.043,0.214,0.041
			c0.065-0.001,0.126-0.01,0.154-0.03c2.091-1.55,4.594-2.927,6.529-2.927c2.13,0,3.304,0.804,3.304,2.411
			c0,1.117-0.685,1.75-1.616,1.75c-1.076,0-1.394-0.62-1.394-1.35c-0.001-0.576,0.374-0.992,0.992-1.07
			c0.09-0.012,0.188-0.141,0.136-0.198c-0.626-0.686-1.737-0.645-2.891-0.375C139.027,3.495,136.933,4.656,135.202,6.171z"/>
	</g>
</g>
</svg>
